<svg width="38" height="24" viewBox="0 0 38 24" fill="none" xmlns="http://www.w3.org/2000/svg">
<rect width="37.9994" height="24" rx="2" fill="white"/>
<path d="M6.12109 9.39343H7.20678L6.66394 8.07837L6.12109 9.39343Z" fill="#2FABF7"/>
<path d="M19.5927 8.26596C19.494 8.21899 19.346 8.21899 19.1979 8.21899H18.2109V8.97046H19.1979C19.346 8.97046 19.494 8.97046 19.5927 8.92349C19.6914 8.87653 19.7408 8.73563 19.7408 8.59473C19.7901 8.40686 19.6914 8.31293 19.5927 8.26596Z" fill="#228FE0"/>
<path d="M30.1511 6.85718V7.42078L29.855 6.85718H27.5356V7.42078L27.2395 6.85718H24.0812C23.5383 6.85718 23.0942 6.95111 22.6994 7.13898V6.85718H20.4786V7.13898C20.2319 6.95111 19.9358 6.85718 19.541 6.85718H11.5958L11.0529 8.03134L10.5101 6.85718H7.99326V7.42078L7.69717 6.85718H5.57515L4.58816 9.06461L3.45312 11.5069H4.58816H5.96994L6.26604 10.7554H6.95693L7.25302 11.5069H10.1153V10.9433L10.362 11.5069H11.7932L12.0399 10.9433V11.5069H18.8995V10.2857H18.9982C19.0969 10.2857 19.0969 10.2857 19.0969 10.4266V11.4599H22.65V11.1781C22.9461 11.319 23.3903 11.4599 23.9825 11.4599H25.4629L25.759 10.7084H26.4499L26.746 11.4599H29.6083V10.7554L30.0524 11.4599H32.3718V6.85718H30.1511ZM13.471 10.8024H12.6321V8.21921L11.4477 10.8024H10.7075L9.52309 8.21921V10.8024H7.84522L7.49977 10.0979H5.82189L5.5258 10.8493H4.58816L6.06864 7.51471H7.30237L8.68416 10.6615V7.51471H10.0166L11.1023 9.7691L12.0893 7.51471H13.471V10.8024ZM16.8268 8.21921H14.9022V8.82977H16.7774V9.4873H14.9022V10.1448H16.8268V10.8493H14.0632V7.51471H16.8268V8.21921ZM20.528 9.58124C20.6267 9.7691 20.676 9.91 20.676 10.1918V10.8493H19.8371V10.4266C19.8371 10.2388 19.8371 9.95697 19.6891 9.7691C19.541 9.6282 19.393 9.6282 19.0969 9.6282H18.2086V10.8493H17.3696V7.51471H19.2449C19.6891 7.51471 19.9852 7.51471 20.2319 7.65561C20.4786 7.79651 20.6267 8.03134 20.6267 8.40707C20.6267 8.92371 20.2813 9.2055 20.0345 9.29944C20.2813 9.3464 20.4293 9.4873 20.528 9.58124ZM22.0085 10.8024H21.1695V7.46774H22.0085V10.8024ZM31.7303 10.8024H30.5459L28.9667 8.31314V10.8024H27.2889L26.9928 10.0979H25.2655L24.9694 10.8493H24.0318C23.637 10.8493 23.1435 10.7554 22.8474 10.4736C22.5513 10.1918 22.4033 9.81607 22.4033 9.2055C22.4033 8.73584 22.502 8.26617 22.8474 7.89044C23.0942 7.60864 23.5383 7.51471 24.0812 7.51471H24.8707V8.21921H24.0812C23.7851 8.21921 23.637 8.26617 23.4396 8.40707C23.2916 8.54797 23.1929 8.82977 23.1929 9.15854C23.1929 9.53427 23.2422 9.7691 23.4396 9.95697C23.5877 10.0979 23.7851 10.1448 24.0318 10.1448H24.3772L25.5123 7.56168H26.746L28.1278 10.7084V7.56168H29.3615L30.7927 9.86304V7.56168H31.6316V10.8024H31.7303Z" fill="#0571C1"/>
<path d="M25.5566 9.39343H26.6917L26.1488 8.07837L25.5566 9.39343Z" fill="#228FE0"/>
<path d="M17.1718 16.1566V13.4795L15.8887 14.7946L17.1718 16.1566Z" fill="#228FE0"/>
<path d="M11.8965 13.8081V14.4187H13.7224V15.0762H11.8965V15.7807H13.9198L14.8574 14.7944L13.9692 13.8081H11.8965Z" fill="#2FABF7"/>
<path d="M19.0441 13.8081H18.0078V14.6535H19.0935C19.3896 14.6535 19.587 14.5126 19.587 14.2308C19.5376 13.949 19.3402 13.8081 19.0441 13.8081Z" fill="#228FE0"/>
<path d="M34.2943 14.6064V12.4929H33.7021H32.2217C31.7775 12.4929 31.4321 12.5869 31.1853 12.7747V12.4929H28.9153C28.5698 12.4929 28.1257 12.5869 27.9283 12.7747V12.4929H23.931V12.7747C23.6349 12.5399 23.092 12.4929 22.8453 12.4929H20.1804V12.7747C19.9337 12.5399 19.3415 12.4929 19.0454 12.4929H16.0844L15.3935 13.1974L14.752 12.4929H10.3105V17.0956H14.6533L15.3442 16.3911L15.9857 17.0956H18.6506V16.0154H18.996C19.3415 16.0154 19.7856 16.0154 20.1311 15.8745V17.1426H22.3518V15.9215H22.4505C22.5985 15.9215 22.5985 15.9215 22.5985 16.0624V17.1426H29.31C29.7542 17.1426 30.1983 17.0487 30.4451 16.8608V17.1426H32.5671C33.0112 17.1426 33.4554 17.0956 33.7515 16.9078C34.245 16.626 34.5411 16.1093 34.5411 15.4988C34.5411 15.17 34.4424 14.8412 34.2943 14.6064ZM18.996 15.3579H18.009V16.4851H16.4299L15.4429 15.4048L14.4065 16.4851H11.1495V13.1505H14.4559L15.4429 14.2307L16.4792 13.1505H19.0947C19.7363 13.1505 20.4765 13.3383 20.4765 14.2307C20.4272 15.17 19.7363 15.3579 18.996 15.3579ZM23.931 15.17C24.0297 15.3109 24.079 15.4988 24.079 15.7806V16.4381H23.2401V16.0154C23.2401 15.8275 23.2401 15.4988 23.092 15.3579C22.9933 15.217 22.7959 15.217 22.4998 15.217H21.6115V16.4381H20.7726V13.1035H22.6479C23.0427 13.1035 23.3881 13.1035 23.6349 13.2444C23.8816 13.3853 24.079 13.6201 24.079 13.9958C24.079 14.5125 23.7336 14.7943 23.4868 14.8882C23.7336 14.9821 23.8816 15.0761 23.931 15.17ZM27.3361 13.808H25.4114V14.4185H27.2867V15.0761H25.4114V15.7336H27.3361V16.4381H24.5725V13.1035H27.3361V13.808ZM29.4087 16.4381H27.8296V15.7336H29.4087C29.5568 15.7336 29.6555 15.7336 29.7542 15.6397C29.8035 15.5927 29.8529 15.4988 29.8529 15.4048C29.8529 15.3109 29.8035 15.217 29.7542 15.17C29.7048 15.123 29.6061 15.0761 29.4581 15.0761C28.6685 15.0291 27.7309 15.0761 27.7309 14.0428C27.7309 13.5731 28.027 13.0565 28.9153 13.0565H30.5438V13.855H29.014C28.8659 13.855 28.7672 13.8549 28.6685 13.9019C28.5698 13.9489 28.5698 14.0428 28.5698 14.1367C28.5698 14.2776 28.6685 14.3246 28.7672 14.3716C28.8659 14.4185 28.9646 14.4185 29.0633 14.4185H29.5074C29.9516 14.4185 30.2477 14.5125 30.4451 14.7003C30.5931 14.8412 30.6918 15.0761 30.6918 15.4048C30.6918 16.1093 30.2477 16.4381 29.4087 16.4381ZM33.6528 16.1093C33.4554 16.2972 33.1099 16.4381 32.6165 16.4381H31.0373V15.7336H32.6165C32.7645 15.7336 32.8632 15.7336 32.9619 15.6397C33.0112 15.5927 33.0606 15.4988 33.0606 15.4048C33.0606 15.3109 33.0112 15.217 32.9619 15.17C32.9125 15.123 32.8139 15.0761 32.6658 15.0761C31.8762 15.0291 30.9386 15.0761 30.9386 14.0428C30.9386 13.5731 31.2347 13.0565 32.123 13.0565H33.7515V13.855H32.271C32.123 13.855 32.0243 13.8549 31.9256 13.9019C31.8269 13.9489 31.8269 14.0428 31.8269 14.1367C31.8269 14.2776 31.8762 14.3246 32.0243 14.3716C32.123 14.4185 32.2217 14.4185 32.3204 14.4185H32.7645C33.2086 14.4185 33.5047 14.5125 33.7021 14.7003C33.7515 14.7003 33.7515 14.7473 33.7515 14.7473C33.8995 14.9352 33.9489 15.17 33.9489 15.4048C33.9489 15.6866 33.8502 15.9215 33.6528 16.1093Z" fill="#0571C1"/>
<path d="M23.0458 13.9019C22.9471 13.855 22.7991 13.855 22.651 13.855H21.6641V14.6064H22.651C22.7991 14.6064 22.9471 14.6064 23.0458 14.5595C23.1445 14.5125 23.1939 14.3716 23.1939 14.2307C23.2432 14.0428 23.1445 13.9489 23.0458 13.9019Z" fill="#228FE0"/>
<path d="M19.5927 8.26596C19.494 8.21899 19.346 8.21899 19.1979 8.21899H18.2109V8.97046H19.1979C19.346 8.97046 19.494 8.97046 19.5927 8.92349C19.6914 8.87653 19.7408 8.73563 19.7408 8.59473C19.7901 8.40686 19.6914 8.31293 19.5927 8.26596Z" fill="#228FE0"/>
<path d="M25.5566 9.39343H26.6917L26.1488 8.07837L25.5566 9.39343Z" fill="#228FE0"/>
<path d="M17.1718 16.1566V13.4795L15.8887 14.7946L17.1718 16.1566Z" fill="#228FE0"/>
<path d="M19.0441 13.8081H18.0078V14.6535H19.0935C19.3896 14.6535 19.587 14.5126 19.587 14.2308C19.5376 13.949 19.3402 13.8081 19.0441 13.8081Z" fill="#228FE0"/>
<path d="M23.0458 13.9019C22.9471 13.855 22.7991 13.855 22.651 13.855H21.6641V14.6064H22.651C22.7991 14.6064 22.9471 14.6064 23.0458 14.5595C23.1445 14.5125 23.1939 14.3716 23.1939 14.2307C23.2432 14.0428 23.1445 13.9489 23.0458 13.9019Z" fill="#228FE0"/>
<path d="M18.6999 16.3442L18.009 15.6397V16.4381H16.3805L15.3935 15.3579L14.3078 16.4381H11.0508V13.1505H14.3572L15.3935 14.2307L15.887 13.6671L14.6533 12.4929H10.3105V17.0956H14.6533L15.3935 16.3911L16.0351 17.0956H18.6999V16.3442Z" fill="#2FABF7"/>
<path d="M13.5697 11.4599L12.9282 10.8024H12.6321V10.5206L11.8919 9.81607L11.3984 10.8024H10.7075L9.52309 8.21921V10.8024H7.84522L7.49977 10.0979H5.82189L5.47645 10.8024H4.58816L6.06864 7.51471H7.30237L8.68416 10.6615V7.51471H9.4244L8.7335 6.85718H7.99326V7.42078L7.74652 6.85718H5.57515L4.58816 9.0646L3.45312 11.4599H4.58816H6.01929L6.31539 10.7554H7.00628L7.35172 11.4599H10.1153V10.8963L10.362 11.4599H11.7932L12.0399 10.8963V11.4599H13.5697Z" fill="#2FABF7"/>
<path d="M11.3013 9.29956L10.5117 8.5481L11.1039 9.76923L11.3013 9.29956Z" fill="#2FABF7"/>
<path d="M33.7533 16.8611C34.1974 16.5793 34.4935 16.1096 34.5429 15.593L33.852 14.9355C33.9013 15.0764 33.9507 15.2173 33.9507 15.4051C33.9507 15.6869 33.852 15.9218 33.6546 16.1096C33.4572 16.2975 33.1117 16.4384 32.6182 16.4384H31.0391V15.7339H32.6182C32.7663 15.7339 32.865 15.7339 32.9637 15.64C33.013 15.593 33.0624 15.4991 33.0624 15.4051C33.0624 15.3112 33.013 15.2173 32.9637 15.1703C32.9143 15.1233 32.8156 15.0764 32.6676 15.0764C31.878 15.0294 30.9404 15.0764 30.9404 14.0431C30.9404 13.5734 31.2365 13.1507 31.9767 13.0568L31.4339 12.5402C31.3352 12.5871 31.2858 12.6341 31.2365 12.6341V12.3523H28.9664C28.6209 12.3523 28.1768 12.4462 27.9794 12.6341V12.3523H23.9328V12.6341C23.6367 12.3993 23.0938 12.3523 22.8471 12.3523H20.1822V12.6341C19.9355 12.3993 19.3433 12.3523 19.0472 12.3523H16.0862L15.3953 13.0568L14.7538 12.3523H14.2109L15.6914 13.7613L16.4317 13.0098H19.0472C19.6887 13.0098 20.429 13.1977 20.429 14.0901C20.429 15.0294 19.7381 15.2173 18.9978 15.2173H18.0108V15.9218L18.7511 16.6262V15.9218H18.9978C19.3433 15.9218 19.7874 15.9218 20.1329 15.7809V17.0489H22.3536V15.8278H22.4523C22.6003 15.8278 22.6003 15.8278 22.6003 15.9687V17.0489H29.3118C29.756 17.0489 30.2001 16.955 30.4469 16.7672V17.0489H32.5689C32.9637 17.0959 33.4078 17.0489 33.7533 16.8611ZM23.9328 15.1703C24.0315 15.3112 24.0808 15.4991 24.0808 15.7809V16.4384H23.2419V16.0157C23.2419 15.8278 23.2419 15.4991 23.0938 15.3582C22.9951 15.2173 22.7977 15.2173 22.5016 15.2173H21.6133V16.4384H20.7744V13.1038H22.6497C23.0445 13.1038 23.3899 13.1038 23.6367 13.2447C23.8834 13.3856 24.0808 13.6204 24.0808 13.9961C24.0808 14.5128 23.7354 14.7946 23.4886 14.8885C23.7354 14.9824 23.8834 15.0764 23.9328 15.1703ZM27.3379 13.8083H25.4132V14.4188H27.2885V15.0764H25.4132V15.7339H27.3379V16.4384H24.5743V13.1038H27.3379V13.8083ZM29.4105 16.4384H27.8314V15.7339H29.4105C29.5586 15.7339 29.6573 15.7339 29.756 15.64C29.8053 15.593 29.8547 15.4991 29.8547 15.4051C29.8547 15.3112 29.8053 15.2173 29.756 15.1703C29.7066 15.1233 29.6079 15.0764 29.4599 15.0764C28.6703 15.0294 27.7327 15.0764 27.7327 14.0431C27.7327 13.5734 28.0288 13.0568 28.917 13.0568H30.5456V13.8552H29.0157C28.8677 13.8552 28.769 13.8552 28.6703 13.9022C28.5716 13.9492 28.5716 14.0431 28.5716 14.137C28.5716 14.2779 28.6703 14.3249 28.769 14.3719C28.8677 14.4188 28.9664 14.4188 29.0651 14.4188H29.5092C29.9534 14.4188 30.2495 14.5128 30.4469 14.7006C30.5949 14.8415 30.6936 15.0764 30.6936 15.4051C30.6936 16.1096 30.2495 16.4384 29.4105 16.4384Z" fill="#228FE0"/>
<path d="M31.7793 14.1368C31.7793 14.2777 31.8286 14.3246 31.9767 14.3716C32.0754 14.4186 32.1741 14.4186 32.2728 14.4186H32.7169C33.013 14.4186 33.2104 14.4655 33.4078 14.5595L32.6676 13.855H32.2234C32.0754 13.855 31.9767 13.855 31.878 13.9019C31.8286 13.9489 31.7793 14.0428 31.7793 14.1368Z" fill="#228FE0"/>
<path d="M30.0508 11.3191L30.15 11.4608H30.1997L30.0508 11.3191Z" fill="#228FE0"/>
<path d="M27.3398 8.7356L28.1788 10.6612V9.53403L27.3398 8.7356Z" fill="#228FE0"/>
<path d="M18.9006 10.2856H18.9993C19.098 10.2856 19.098 10.2856 19.098 10.4265V11.4598H22.6512V11.178C22.9473 11.3189 23.3914 11.4598 23.9836 11.4598H25.4641L25.7602 10.7083H26.4511L26.7472 11.4598H29.6094V10.9901L28.9185 10.3326V10.8492H27.2406L26.9939 10.0978H25.2667L24.9706 10.8492H24.0329C23.6381 10.8492 23.1446 10.7553 22.8486 10.4735C22.5525 10.1917 22.4044 9.81598 22.4044 9.20541C22.4044 8.73575 22.5031 8.26608 22.8486 7.89035C23.0953 7.60855 23.5394 7.51462 24.0823 7.51462H24.8719V8.21912H24.0823C23.7862 8.21912 23.6381 8.26608 23.4407 8.40698C23.2927 8.54788 23.194 8.82968 23.194 9.15845C23.194 9.53418 23.2433 9.76901 23.4407 9.95688C23.5888 10.0978 23.7862 10.1447 24.0329 10.1447H24.3784L25.5134 7.56158H26.0069L25.316 6.90405H24.0329C23.4901 6.90405 23.0459 6.99799 22.6512 7.18585V6.90405H20.4798V7.18585C20.233 6.99799 19.9369 6.90405 19.5421 6.90405H11.5969L11.0541 8.07822L10.5112 6.90405H8.33984L9.03073 7.56158H10.0177L10.8567 9.29935L11.1528 9.58115L12.041 7.51462H13.4228V10.8492H12.5839V8.26608L11.7449 10.1447L13.1761 11.5068H18.8513L18.9006 10.2856ZM21.1707 7.51462H22.0096V10.8492H21.1707V7.51462ZM16.8279 8.21912H14.9033V8.82968H16.7786V9.48721H14.9033V10.1447H16.8279V10.8492H14.0644V7.51462H16.8279V8.21912ZM18.2097 10.8023H17.3708V7.46765H19.246C19.6902 7.46765 19.9863 7.46765 20.233 7.60855C20.4798 7.74945 20.6278 7.98428 20.6278 8.36002C20.6278 8.87665 20.2824 9.15845 20.0356 9.25238C20.233 9.29935 20.3811 9.44025 20.4304 9.53418C20.5291 9.72204 20.5785 9.86294 20.5785 10.1447V10.8023H19.7395V10.3796C19.7395 10.1917 19.7395 9.90991 19.5915 9.72204C19.5421 9.62811 19.3941 9.62811 19.098 9.62811H18.2097V10.8023Z" fill="#228FE0"/>
</svg>
