<svg width="38" height="24" viewBox="0 0 38 24" fill="none" xmlns="http://www.w3.org/2000/svg">
<rect width="37.9994" height="24" rx="2" fill="white"/>
<path d="M20.3535 14.5228C21.7536 14.5228 22.8886 13.3933 22.8886 11.9999C22.8886 10.6066 21.7536 9.47705 20.3535 9.47705C18.9534 9.47705 17.8184 10.6066 17.8184 11.9999C17.8184 13.3933 18.9534 14.5228 20.3535 14.5228Z" fill="#EF9122"/>
<path d="M17.8184 11.9999C17.8184 10.5929 18.9397 9.47705 20.3535 9.47705C21.7673 9.47705 22.8886 10.5929 22.8886 11.9999C22.8886 13.4069 21.7673 14.5228 20.3535 14.5228" fill="#F26E21"/>
<path d="M18.6016 10.2048C19.5766 9.23447 21.1854 9.23447 22.1605 10.2048C23.1355 11.1751 23.1355 12.7762 22.1605 13.7465" fill="#F44500"/>
<path d="M5.68342 9.6228H4.31836V14.3774H5.68342C6.4147 14.3774 6.95097 14.1834 7.38974 13.8438C7.92601 13.4071 8.26727 12.7279 8.26727 12.0001C8.26727 10.5931 7.24348 9.6228 5.68342 9.6228ZM6.80471 13.213C6.5122 13.4556 6.12218 13.6012 5.53716 13.6012H5.24465V10.4476H5.48841C6.07343 10.4476 6.46345 10.5446 6.75596 10.8357C7.09722 11.1268 7.29223 11.5635 7.29223 12.0001C7.34098 12.4368 7.14598 12.9219 6.80471 13.213Z" fill="#595A5B"/>
<path d="M9.63527 9.6228H8.70898V14.3774H9.63527V9.6228Z" fill="#595A5B"/>
<path d="M11.9677 11.4664C11.3826 11.2723 11.2364 11.1268 11.2364 10.8842C11.2364 10.5931 11.5289 10.3505 11.9189 10.3505C12.2114 10.3505 12.4552 10.4475 12.6989 10.7386L13.1865 10.1079C12.7964 9.76828 12.3089 9.57422 11.7727 9.57422C10.9439 9.57422 10.2613 10.1564 10.2613 10.9327C10.2613 11.6119 10.5539 11.903 11.4314 12.2426C11.8214 12.3882 11.9677 12.4367 12.0652 12.5337C12.2602 12.6308 12.3577 12.8248 12.3577 13.0189C12.3577 13.407 12.0652 13.6981 11.6264 13.6981C11.1876 13.6981 10.7976 13.4555 10.6026 13.0674L10.0176 13.6496C10.4563 14.2803 10.9926 14.5714 11.6751 14.5714C12.6502 14.5714 13.3327 13.9407 13.3327 13.0189C13.3327 12.1941 13.0402 11.8545 11.9677 11.4664Z" fill="#595A5B"/>
<path d="M13.6289 11.9998C13.6289 13.4068 14.7502 14.4742 16.164 14.4742C16.554 14.4742 16.8953 14.3772 17.3341 14.1831V13.0672C16.944 13.4553 16.6028 13.6009 16.2128 13.6009C15.2865 13.6009 14.6039 12.9217 14.6039 11.9513C14.6039 11.0295 15.2865 10.3018 16.164 10.3018C16.6028 10.3018 16.944 10.4473 17.3341 10.8354V9.71957C16.944 9.5255 16.6028 9.42847 16.164 9.42847C14.799 9.5255 13.6289 10.6414 13.6289 11.9998Z" fill="#3B3D3F"/>
<path d="M24.9886 12.8249L23.7211 9.6228H22.6973L24.6961 14.523H25.2324L27.3287 9.6228H26.3049L24.9886 12.8249Z" fill="black"/>
<path d="M27.7168 14.3774H30.3982V13.6012H28.6918V12.2912H30.3494V11.4664H28.6918V10.4476H30.3982V9.6228H27.7168V14.3774Z" fill="black"/>
<path d="M33.034 12.3883C33.7653 12.2427 34.1553 11.7575 34.1553 11.0298C34.1553 10.1565 33.5215 9.6228 32.449 9.6228H31.0352V14.3774H31.9614V12.4853H32.1077L33.424 14.3774H34.5453L33.034 12.3883ZM32.254 11.8061H31.9614V10.3506H32.254C32.839 10.3506 33.1802 10.5931 33.1802 11.0783C33.1802 11.5635 32.839 11.8061 32.254 11.8061Z" fill="#595A5B"/>
<path d="M5.68342 9.6228H4.31836V14.3774H5.68342C6.4147 14.3774 6.95097 14.1834 7.38974 13.8438C7.92601 13.4071 8.26727 12.7279 8.26727 12.0001C8.26727 10.5931 7.24348 9.6228 5.68342 9.6228ZM6.80471 13.213C6.5122 13.4556 6.12218 13.6012 5.53716 13.6012H5.24465V10.4476H5.48841C6.07343 10.4476 6.46345 10.5446 6.75596 10.8357C7.09722 11.1268 7.29223 11.5635 7.29223 12.0001C7.34098 12.4368 7.14598 12.9219 6.80471 13.213Z" fill="#595A5B"/>
<path d="M9.63527 9.6228H8.70898V14.3774H9.63527V9.6228Z" fill="#595A5B"/>
<path d="M11.9677 11.4664C11.3826 11.2723 11.2364 11.1268 11.2364 10.8842C11.2364 10.5931 11.5289 10.3505 11.9189 10.3505C12.2114 10.3505 12.4552 10.4475 12.6989 10.7386L13.1865 10.1079C12.7964 9.76828 12.3089 9.57422 11.7727 9.57422C10.9439 9.57422 10.2613 10.1564 10.2613 10.9327C10.2613 11.6119 10.5539 11.903 11.4314 12.2426C11.8214 12.3882 11.9677 12.4367 12.0652 12.5337C12.2602 12.6308 12.3577 12.8248 12.3577 13.0189C12.3577 13.407 12.0652 13.6981 11.6264 13.6981C11.1876 13.6981 10.7976 13.4555 10.6026 13.0674L10.0176 13.6496C10.4563 14.2803 10.9926 14.5714 11.6751 14.5714C12.6502 14.5714 13.3327 13.9407 13.3327 13.0189C13.3327 12.1941 13.0402 11.8545 11.9677 11.4664Z" fill="#595A5B"/>
<path d="M16.2144 14.4744C16.6044 14.4744 16.9456 14.3774 17.3844 14.1833V13.0674C16.9944 13.4556 16.6531 13.6011 16.2631 13.6011C15.3368 13.6011 14.6543 12.9219 14.6543 11.9515C14.6543 11.4664 14.8493 11.0782 15.1418 10.7386L14.508 10.1079C14.0205 10.5446 13.6793 11.2238 13.6793 11.9515C13.6305 13.407 14.7518 14.4744 16.2144 14.4744Z" fill="#595A5B"/>
<path d="M33.034 12.3883C33.7653 12.2427 34.1553 11.7575 34.1553 11.0298C34.1553 10.1565 33.5215 9.6228 32.449 9.6228H31.0352V14.3774H31.9614V12.4853H32.1077L33.424 14.3774H34.5453L33.034 12.3883ZM32.254 11.8061H31.9614V10.3506H32.254C32.839 10.3506 33.1802 10.5931 33.1802 11.0783C33.1802 11.5635 32.839 11.8061 32.254 11.8061Z" fill="black"/>
<path d="M29.5694 13.601H28.6918V12.7277L27.7168 11.7573V14.3772H30.3494L29.5694 13.601Z" fill="#3B3D3F"/>
<path d="M26.0612 10.108L24.9886 12.8249L23.7211 9.6228H22.6973L24.6961 14.523H25.2324L26.7924 10.8357L26.0612 10.108Z" fill="#3B3D3F"/>
</svg>
