<svg width="17" height="17" viewBox="0 0 17 17" fill="none" xmlns="http://www.w3.org/2000/svg">
<path d="M15.224 10.3031C15.115 10.3031 15.0105 10.3463 14.9334 10.4234C14.8563 10.5005 14.813 10.605 14.813 10.7141V14.362C14.8125 14.6886 14.6825 15.0017 14.4516 15.2326C14.2206 15.4636 13.9076 15.5935 13.581 15.5941H2.054C1.72724 15.5935 1.41403 15.4634 1.18308 15.2323C0.952117 15.0011 0.822264 14.6878 0.822 14.361V3.65605C0.822529 3.32947 0.952498 3.01641 1.18343 2.78548C1.41436 2.55455 1.72742 2.42458 2.054 2.42405H5.7C5.809 2.42405 5.91354 2.38075 5.99062 2.30367C6.0677 2.22659 6.111 2.12205 6.111 2.01305C6.111 1.90405 6.0677 1.7995 5.99062 1.72243C5.91354 1.64535 5.809 1.60205 5.7 1.60205H2.054C1.50941 1.60258 0.987273 1.81915 0.602188 2.20424C0.217103 2.58932 0.000529502 3.11146 0 3.65605V14.362C0.000529502 14.9066 0.217103 15.4288 0.602188 15.8139C0.987273 16.1989 1.50941 16.4155 2.054 16.416H13.581C14.1256 16.4155 14.6477 16.1989 15.0328 15.8139C15.4179 15.4288 15.6345 14.9066 15.635 14.362V10.7141C15.635 10.605 15.5917 10.5005 15.5146 10.4234C15.4375 10.3463 15.333 10.3031 15.224 10.3031Z" fill="#737373"/>
<path d="M15.4723 0.543121C15.3006 0.370958 15.0965 0.234366 14.8719 0.141169C14.6473 0.0479722 14.4065 0 14.1633 0C13.9201 0 13.6793 0.0479722 13.4547 0.141169C13.2301 0.234366 13.0261 0.370958 12.8543 0.543121L5.52532 7.87212C5.47529 7.92238 5.43911 7.98474 5.42031 8.05312L4.45632 11.5331C4.43693 11.6031 4.43644 11.6771 4.45491 11.7473C4.47339 11.8176 4.51017 11.8817 4.5615 11.9331C4.61282 11.9846 4.67687 12.0215 4.7471 12.0401C4.81734 12.0587 4.89125 12.0584 4.96132 12.0391L8.44131 11.0751C8.50969 11.0563 8.57205 11.0202 8.62231 10.9701L15.9543 3.64312C16.3003 3.29614 16.4946 2.82613 16.4946 2.33612C16.4946 1.84611 16.3003 1.3761 15.9543 1.02912L15.4723 0.543121ZM6.42431 8.14312L12.4243 2.14312L14.3543 4.07712L8.35431 10.0771L6.42431 8.14312ZM6.03831 8.91812L7.58432 10.4641L5.44632 11.0561L6.03831 8.91812ZM15.3743 3.06212L14.9383 3.49812L13.0033 1.56312L13.4393 1.12712C13.6319 0.934643 13.893 0.826518 14.1653 0.826518C14.4376 0.826518 14.6987 0.934643 14.8913 1.12712L15.3733 1.60912C15.5656 1.80183 15.6735 2.06292 15.6735 2.33512C15.6735 2.60732 15.5656 2.86841 15.3733 3.06112L15.3743 3.06212Z" fill="#737373"/>
</svg>
