<svg width="38" height="24" viewBox="0 0 38 24" fill="none" xmlns="http://www.w3.org/2000/svg">
<rect width="37.9994" height="24" rx="2" fill="white"/>
<path d="M15.3164 16.0612L16.7201 7.9834H18.9134L17.5536 16.0612H15.3164Z" fill="#3C58BF"/>
<path d="M15.3164 16.0612L17.1149 7.9834H18.9134L17.5536 16.0612H15.3164Z" fill="#293688"/>
<path d="M25.4888 8.07337C25.0502 7.89386 24.3483 7.71436 23.471 7.71436C21.2777 7.71436 19.6985 8.83627 19.6985 10.4518C19.6985 11.6635 20.7952 12.2918 21.6725 12.6957C22.5498 13.0995 22.813 13.3688 22.813 13.7278C22.813 14.2663 22.1112 14.5356 21.497 14.5356C20.6197 14.5356 20.1372 14.401 19.3915 14.0868L19.0844 13.9522L18.7773 15.7921C19.3037 16.0165 20.2688 16.2409 21.2777 16.2409C23.6026 16.2409 25.1379 15.119 25.1379 13.4137C25.1379 12.4713 24.5677 11.7532 23.2517 11.1699C22.4621 10.766 21.9796 10.5416 21.9796 10.1377C21.9796 9.77868 22.3744 9.41967 23.2517 9.41967C23.9974 9.41967 24.5238 9.5543 24.9186 9.7338L25.1379 9.82355L25.4888 8.07337Z" fill="#3C58BF"/>
<path d="M25.4888 8.07337C25.0502 7.89386 24.3483 7.71436 23.471 7.71436C21.2777 7.71436 20.0933 8.83627 20.0933 10.4518C20.0933 11.6635 20.7952 12.2918 21.6725 12.6957C22.5498 13.0995 22.813 13.3688 22.813 13.7278C22.813 14.2663 22.1112 14.5356 21.497 14.5356C20.6197 14.5356 20.1372 14.401 19.3915 14.0868L19.0844 13.9522L18.7773 15.7921C19.3037 16.0165 20.2688 16.2409 21.2777 16.2409C23.6026 16.2409 25.1379 15.119 25.1379 13.4137C25.1379 12.4713 24.5677 11.7532 23.2517 11.1699C22.4621 10.766 21.9796 10.5416 21.9796 10.1377C21.9796 9.77868 22.3744 9.41967 23.2517 9.41967C23.9974 9.41967 24.5238 9.5543 24.9186 9.7338L25.1379 9.82355L25.4888 8.07337Z" fill="#293688"/>
<path d="M29.2586 7.9834C28.7322 7.9834 28.3374 8.02828 28.1181 8.56679L24.8281 16.0612H27.1969L27.6355 14.7149H30.443L30.7062 16.0612H32.8117L30.9694 7.9834H29.2586ZM28.2497 13.3686C28.3813 12.9647 29.127 10.9901 29.127 10.9901C29.127 10.9901 29.3025 10.4965 29.4341 10.1824L29.5656 10.9453C29.5656 10.9453 30.0043 12.9647 30.092 13.4135H28.2497V13.3686Z" fill="#3C58BF"/>
<path d="M29.785 7.9834C29.2586 7.9834 28.8638 8.02828 28.6445 8.56679L24.8281 16.0612H27.1969L27.6355 14.7149H30.443L30.7062 16.0612H32.8117L30.9694 7.9834H29.785ZM28.2497 13.3686C28.4251 12.9198 29.127 10.9901 29.127 10.9901C29.127 10.9901 29.3025 10.4965 29.4341 10.1824L29.5656 10.9453C29.5656 10.9453 30.0043 12.9647 30.092 13.4135H28.2497V13.3686Z" fill="#293688"/>
<path d="M11.2763 13.6377L11.0569 12.4709C10.6622 11.1246 9.39004 9.64363 7.98633 8.92561L9.9603 16.1059H12.3291L15.8822 8.02808H13.5134L11.2763 13.6377Z" fill="#3C58BF"/>
<path d="M11.2763 13.6377L11.0569 12.4709C10.6622 11.1246 9.39004 9.64363 7.98633 8.92561L9.9603 16.1059H12.3291L15.8822 8.02808H13.9521L11.2763 13.6377Z" fill="#293688"/>
<path d="M5.18164 7.9834L5.57643 8.07315C8.38386 8.7463 10.314 10.4516 11.0597 12.4711L10.2701 8.65655C10.1385 8.11803 9.7437 7.9834 9.26118 7.9834H5.18164Z" fill="#FFBC00"/>
<path d="M5.18164 7.9834C7.98906 8.65655 10.314 10.4067 11.0597 12.4262L10.314 9.23994C10.1824 8.70142 9.7437 8.38729 9.26118 8.38729L5.18164 7.9834Z" fill="#F7981D"/>
<path d="M5.18164 7.9834C7.98906 8.65655 10.314 10.4067 11.0597 12.4262L10.5333 10.676C10.4017 10.1375 10.2262 9.59896 9.6121 9.37457L5.18164 7.9834Z" fill="#ED7C00"/>
<path d="M13.4745 13.3688L11.9831 11.843L11.2812 13.5483L11.1058 12.4264C10.711 11.0801 9.43887 9.59913 8.03516 8.8811L10.0091 16.0614H12.3779L13.4745 13.3688Z" fill="#051244"/>
<path d="M17.5536 16.0612L15.6673 14.0867L15.3164 16.0612H17.5536Z" fill="#051244"/>
<path d="M22.5937 13.2791C22.7691 13.4586 22.8569 13.5932 22.813 13.7727C22.813 14.3112 22.1112 14.5805 21.497 14.5805C20.6197 14.5805 20.1372 14.4458 19.3915 14.1317L19.0844 13.9971L18.7773 15.837C19.3037 16.0614 20.2688 16.2858 21.2777 16.2858C22.6814 16.2858 23.8219 15.8819 24.4799 15.1639L22.5937 13.2791Z" fill="#051244"/>
<path d="M25.1387 16.0617H27.2004L27.639 14.7154H30.4465L30.7097 16.0617H32.8152L32.0695 12.7857L29.4375 10.1829L29.5691 10.9009C29.5691 10.9009 30.0078 12.9203 30.0955 13.3691H28.2532C28.4286 12.9203 29.1305 10.9906 29.1305 10.9906C29.1305 10.9906 29.3059 10.497 29.4375 10.1829" fill="#051244"/>
</svg>
