<svg width="24" height="24" viewBox="0 0 24 24" fill="none" xmlns="http://www.w3.org/2000/svg">
<path d="M20.1903 10.3229C19.6029 9.73569 18.822 9.41244 17.9915 9.41244H17.7665V6.32169C17.7665 3.16457 15.1982 0.596191 12.0412 0.596191H11.8295C8.67259 0.596191 6.10403 3.16457 6.10403 6.32169V9.41225H5.87903C5.04859 9.41225 4.26766 9.73569 3.68022 10.3229C3.09297 10.9104 2.76953 11.6913 2.76953 12.5219V20.2942C2.76953 21.1248 3.09297 21.9058 3.68022 22.4928C4.26747 23.0803 5.04841 23.4037 5.87903 23.4037H17.9915C18.8222 23.4037 19.6031 23.0803 20.1905 22.4928C20.7778 21.9056 21.1012 21.1246 21.1012 20.2942V12.5219C21.1012 11.6915 20.7778 10.9106 20.1903 10.3229ZM7.60403 6.32169C7.60403 3.99182 9.49947 2.09619 11.8295 2.09619H12.0412C14.3711 2.09619 16.2665 3.99182 16.2665 6.32169V9.41225H7.60403V6.32169ZM19.6012 20.2942C19.6012 20.7178 19.4293 21.1325 19.1298 21.4321C18.8257 21.7363 18.4215 21.9037 17.9915 21.9037H5.87903C5.44909 21.9037 5.04503 21.7363 4.74072 21.4319C4.43678 21.1282 4.26934 20.7241 4.26934 20.2942V12.5219C4.26934 12.092 4.43678 11.6876 4.74072 11.3836C5.04484 11.0797 5.44891 10.9123 5.87884 10.9123H17.9913C18.4213 10.9123 18.8255 11.0797 19.1295 11.3834C19.4336 11.6878 19.601 12.092 19.601 12.5219L19.6012 20.2942Z" fill="#062B48"/>
<path d="M11.9355 14.3369C11.5214 14.3369 11.1855 14.6727 11.1855 15.0869V17.7292C11.1855 18.1434 11.5214 18.4792 11.9355 18.4792C12.3497 18.4792 12.6855 18.1434 12.6855 17.7292V15.0869C12.6855 14.6727 12.3497 14.3369 11.9355 14.3369Z" fill="#062B48"/>
</svg>
