<svg width="61" height="60" viewBox="0 0 61 60" fill="none" xmlns="http://www.w3.org/2000/svg">
<path fill-rule="evenodd" clip-rule="evenodd" d="M0.585976 5.28806C0.585976 2.54604 2.79976 0.323181 5.53059 0.323181H23.3313C26.0621 0.323181 28.2759 2.54604 28.2759 5.28808V23.1616C28.2759 25.9038 26.0621 28.1265 23.3313 28.1265H5.53059C2.79976 28.1265 0.585976 25.9038 0.585976 23.1616V5.28806ZM2.56383 5.28808C2.56383 3.64285 3.8921 2.30914 5.53059 2.30914H23.3313C24.9698 2.30914 26.298 3.64285 26.298 5.28808V23.1616C26.298 24.8069 24.9698 26.1406 23.3313 26.1406H5.53059C3.8921 26.1406 2.56383 24.8069 2.56383 23.1616V5.28808ZM0.585976 37.0634C0.585976 34.3214 2.79976 32.0985 5.53059 32.0985H23.3313C26.0621 32.0985 28.2759 34.3214 28.2759 37.0634V54.937C28.2759 57.679 26.0621 59.9019 23.3313 59.9019H5.53059C2.79976 59.9019 0.585976 57.679 0.585976 54.937V37.0634ZM2.56383 37.0634C2.56383 35.4181 3.8921 34.0844 5.53059 34.0844H23.3313C24.9698 34.0844 26.298 35.4181 26.298 37.0634V54.937C26.298 56.5821 24.9698 57.9159 23.3313 57.9159H5.53059C3.8921 57.9159 2.56383 56.5821 2.56383 54.937V37.0634ZM37.1761 32.0985C34.4453 32.0985 32.2315 34.3214 32.2315 37.0634V54.937C32.2315 57.679 34.4453 59.9019 37.1761 59.9019H54.9768C57.7076 59.9019 59.9214 57.679 59.9214 54.937V37.0634C59.9214 34.3214 57.7076 32.0985 54.9768 32.0985H37.1761ZM37.1761 34.0844C35.5377 34.0844 34.2094 35.4181 34.2094 37.0634V54.937C34.2094 56.5821 35.5377 57.9159 37.1761 57.9159H54.9768C56.6153 57.9159 57.9436 56.5821 57.9436 54.937V37.0634C57.9436 35.4181 56.6153 34.0844 54.9768 34.0844H37.1761ZM32.2315 14.2249C32.2315 6.54718 38.4301 0.323181 46.0765 0.323181C53.7228 0.323181 59.9214 6.54718 59.9214 14.2249C59.9214 21.9025 53.7228 28.1265 46.0765 28.1265C38.4301 28.1265 32.2315 21.9025 32.2315 14.2249ZM34.2094 14.2249C34.2094 7.64399 39.5225 2.30914 46.0765 2.30914C52.6305 2.30914 57.9436 7.64399 57.9436 14.2249C57.9436 20.8058 52.6305 26.1406 46.0765 26.1406C39.5225 26.1406 34.2094 20.8058 34.2094 14.2249Z" fill="#1A4668"/>
</svg>
