<svg width="38" height="24" viewBox="0 0 38 24" fill="none" xmlns="http://www.w3.org/2000/svg">
<rect width="37.9994" height="24" rx="2" fill="white"/>
<path d="M31.9557 11.9999C31.9557 16.2448 28.6162 19.7141 24.4417 19.7141C20.307 19.7141 16.9277 16.2448 16.9277 11.9999C16.9277 7.75501 20.2673 4.28564 24.402 4.28564C28.6162 4.28564 31.9557 7.75501 31.9557 11.9999Z" fill="#FFB600"/>
<path d="M24.4417 4.28564C28.5764 4.28564 31.9557 7.75501 31.9557 11.9999C31.9557 16.2448 28.6162 19.7141 24.4417 19.7141C20.307 19.7141 16.9277 16.2448 16.9277 11.9999" fill="#F7981D"/>
<path d="M24.4375 4.28564C28.5722 4.28564 31.9515 7.75501 31.9515 11.9999C31.9515 16.2448 28.6119 19.7141 24.4375 19.7141" fill="#FF8500"/>
<path d="M14.3446 4.28564C10.2497 4.32646 6.91016 7.75501 6.91016 11.9999C6.91016 16.2448 10.2497 19.7141 14.4241 19.7141C16.3722 19.7141 18.1215 18.9386 19.4732 17.7141C19.7515 17.4693 19.9901 17.1835 20.2286 16.8978H18.6781C18.4793 16.6529 18.2805 16.3672 18.1215 16.1223H20.7852C20.9442 15.8774 21.1033 15.5917 21.2225 15.306H17.6842C17.5649 15.0611 17.4456 14.7754 17.3661 14.4897H21.5008C21.7394 13.7142 21.8984 12.8978 21.8984 12.0407C21.8984 11.4693 21.8189 10.9387 21.7394 10.4081H17.1276C17.1674 10.1223 17.2469 9.87745 17.3264 9.59174H21.4611C21.3815 9.30603 21.2623 9.02031 21.143 8.77542H17.6444C17.7637 8.4897 17.9227 8.24481 18.0818 7.9591H20.7454C20.5864 7.67338 20.3876 7.38767 20.1491 7.14277H18.6781C18.9166 6.85706 19.1552 6.61216 19.4335 6.36727C18.1215 5.10197 16.3325 4.36728 14.3844 4.36728C14.3844 4.28564 14.3844 4.28564 14.3446 4.28564Z" fill="#FF5050"/>
<path d="M6.91016 12C6.91016 16.2449 10.2497 19.7143 14.4241 19.7143C16.3722 19.7143 18.1215 18.9388 19.4732 17.7143C19.7515 17.4694 19.9901 17.1837 20.2286 16.898H18.6781C18.4793 16.6531 18.2805 16.3674 18.1215 16.1225H20.7852C20.9442 15.8776 21.1033 15.5919 21.2225 15.3062H17.6842C17.5649 15.0613 17.4456 14.7755 17.3661 14.4898H21.5008C21.7394 13.7143 21.8984 12.898 21.8984 12.0409C21.8984 11.4694 21.8189 10.9388 21.7394 10.4082H17.1276C17.1674 10.1225 17.2469 9.87761 17.3264 9.5919H21.4611C21.3815 9.30618 21.2623 9.02047 21.143 8.77557H17.6444C17.7637 8.48986 17.9227 8.24496 18.0818 7.95925H20.7454C20.5864 7.67354 20.3876 7.38782 20.1491 7.14293H18.6781C18.9166 6.85721 19.1552 6.61232 19.4335 6.36742C18.1215 5.10212 16.3325 4.36743 14.3844 4.36743H14.3446" fill="#E52836"/>
<path d="M14.4233 19.7143C16.3713 19.7143 18.1206 18.9388 19.4723 17.7143C19.7506 17.4694 19.9892 17.1837 20.2277 16.898H18.6772C18.4784 16.6531 18.2797 16.3674 18.1206 16.1225H20.7843C20.9433 15.8776 21.1024 15.5919 21.2216 15.3062H17.6833C17.564 15.0613 17.4448 14.7755 17.3652 14.4898H21.4999C21.7385 13.7143 21.8975 12.898 21.8975 12.0409C21.8975 11.4694 21.818 10.9388 21.7385 10.4082H17.1267C17.1665 10.1225 17.246 9.87761 17.3255 9.5919H21.4602C21.3807 9.30618 21.2614 9.02047 21.1421 8.77557H17.6435C17.7628 8.48986 17.9218 8.24496 18.0809 7.95925H20.7446C20.5855 7.67354 20.3867 7.38782 20.1482 7.14293H18.6772C18.9158 6.85721 19.1543 6.61232 19.4326 6.36742C18.1206 5.10212 16.3316 4.36743 14.3835 4.36743H14.3438" fill="#CB2026"/>
<path d="M17.0826 13.9592L17.2019 13.2654C17.1621 13.2654 17.0826 13.3062 17.0031 13.3062C16.7248 13.3062 16.6851 13.1429 16.7248 13.0613L16.9634 11.6327H17.4007L17.52 10.8572H17.1224L17.2019 10.3674H16.4068C16.4068 10.3674 15.9297 13.0613 15.9297 13.3878C15.9297 13.8776 16.208 14.0817 16.5658 14.0817C16.8043 14.0817 17.0031 14.0001 17.0826 13.9592Z" fill="white"/>
<path d="M17.3613 12.6532C17.3613 13.796 18.1167 14.0817 18.7528 14.0817C19.3492 14.0817 19.5877 13.9593 19.5877 13.9593L19.7467 13.1838C19.7467 13.1838 19.3094 13.3879 18.9118 13.3879C18.0372 13.3879 18.1962 12.7348 18.1962 12.7348H19.8262C19.8262 12.7348 19.9455 12.2042 19.9455 12.0001C19.9455 11.4695 19.6672 10.8164 18.7926 10.8164C17.9577 10.7348 17.3613 11.6328 17.3613 12.6532ZM18.7528 11.4695C19.1901 11.4695 19.1106 12.0001 19.1106 12.0409H18.236C18.236 12.0001 18.3155 11.4695 18.7528 11.4695Z" fill="white"/>
<path d="M23.8038 13.9589L23.9628 13.061C23.9628 13.061 23.5653 13.265 23.287 13.265C22.7304 13.265 22.4918 12.8161 22.4918 12.3263C22.4918 11.3467 22.9689 10.8161 23.5255 10.8161C23.9231 10.8161 24.2411 11.061 24.2411 11.061L24.3604 10.2038C24.3604 10.2038 23.8833 9.99976 23.446 9.99976C22.5316 9.99976 21.6172 10.8161 21.6172 12.3671C21.6172 13.3875 22.0943 14.0814 23.0484 14.0814C23.3665 14.0814 23.8038 13.9589 23.8038 13.9589Z" fill="white"/>
<path d="M12.7178 10.7344C12.1612 10.7344 11.7636 10.8976 11.7636 10.8976L11.6444 11.5915C11.6444 11.5915 12.0022 11.4282 12.519 11.4282C12.7973 11.4282 13.0358 11.4691 13.0358 11.714C13.0358 11.8772 12.9961 11.918 12.9961 11.918C12.9961 11.918 12.7575 11.918 12.6383 11.918C11.9624 11.918 11.207 12.2038 11.207 13.1425C11.207 13.8772 11.6841 14.0405 11.9624 14.0405C12.519 14.0405 12.7575 13.6731 12.7973 13.6731L12.7575 13.9997H13.4732L13.7912 11.7548C13.7912 10.7752 12.9961 10.7344 12.7178 10.7344ZM12.8768 12.5711C12.8768 12.6935 12.7973 13.3466 12.3202 13.3466C12.0817 13.3466 12.0022 13.1425 12.0022 13.0201C12.0022 12.816 12.1214 12.5303 12.7178 12.5303C12.8371 12.5711 12.8768 12.5711 12.8768 12.5711Z" fill="white"/>
<path d="M14.5433 14.0408C14.7421 14.0408 15.736 14.0816 15.736 12.9796C15.736 11.9591 14.7818 12.1632 14.7818 11.7551C14.7818 11.551 14.9409 11.4694 15.2192 11.4694C15.3384 11.4694 15.7758 11.5102 15.7758 11.5102L15.895 10.7755C15.895 10.7755 15.6167 10.6938 15.1397 10.6938C14.5433 10.6938 13.947 10.9387 13.947 11.7551C13.947 12.6938 14.9409 12.6122 14.9409 12.9796C14.9409 13.2244 14.6626 13.2653 14.4638 13.2653C14.106 13.2653 13.7482 13.1428 13.7482 13.1428L13.6289 13.8775C13.6687 13.9591 13.8674 14.0408 14.5433 14.0408Z" fill="white"/>
<path d="M30.4087 10.0815L30.2497 11.1836C30.2497 11.1836 29.9316 10.7754 29.4943 10.7754C28.7787 10.7754 28.1426 11.6734 28.1426 12.7346C28.1426 13.3876 28.4606 14.0815 29.1365 14.0815C29.6136 14.0815 29.8919 13.755 29.8919 13.755L29.8521 14.0407H30.6472L31.2436 10.1224L30.4087 10.0815ZM30.0509 12.2448C30.0509 12.6938 29.8521 13.2652 29.4148 13.2652C29.1365 13.2652 28.9775 13.0203 28.9775 12.6121C28.9775 11.9591 29.2558 11.5509 29.6136 11.5509C29.8919 11.5509 30.0509 11.755 30.0509 12.2448Z" fill="white"/>
<path d="M8.37842 13.9999L8.8555 11.0611L8.93501 13.9999H9.49161L10.5253 11.0611L10.088 13.9999H10.9228L11.5589 10.0815H10.247L9.45185 12.4897L9.41209 10.0815H8.25915L7.62305 13.9999H8.37842Z" fill="white"/>
<path d="M20.7047 14.0001C20.9433 12.6531 20.983 11.5511 21.5396 11.7552C21.6191 11.2246 21.7384 11.0205 21.8179 10.8164C21.8179 10.8164 21.7781 10.8164 21.6589 10.8164C21.3011 10.8164 21.0228 11.3062 21.0228 11.3062L21.1023 10.8572H20.3469L19.8301 14.0409H20.7047V14.0001Z" fill="white"/>
<path d="M25.6318 10.7344C25.0753 10.7344 24.6777 10.8976 24.6777 10.8976L24.5584 11.5915C24.5584 11.5915 24.9162 11.4282 25.4331 11.4282C25.7114 11.4282 25.9499 11.4691 25.9499 11.714C25.9499 11.8772 25.9101 11.918 25.9101 11.918C25.9101 11.918 25.6716 11.918 25.5523 11.918C24.8765 11.918 24.1211 12.2038 24.1211 13.1425C24.1211 13.8772 24.5982 14.0405 24.8765 14.0405C25.4331 14.0405 25.6716 13.6731 25.7114 13.6731L25.6716 13.9997H26.3872L26.7053 11.7548C26.745 10.7752 25.9101 10.7344 25.6318 10.7344ZM25.8306 12.5711C25.8306 12.6935 25.7511 13.3466 25.274 13.3466C25.0355 13.3466 24.956 13.1425 24.956 13.0201C24.956 12.816 25.0753 12.5303 25.6716 12.5303C25.7909 12.5711 25.7909 12.5711 25.8306 12.5711Z" fill="white"/>
<path d="M27.3844 14.0001C27.623 12.6531 27.6627 11.5511 28.2193 11.7552C28.2988 11.2246 28.4181 11.0205 28.4976 10.8164C28.4976 10.8164 28.4578 10.8164 28.3386 10.8164C27.9808 10.8164 27.7025 11.3062 27.7025 11.3062L27.782 10.8572H27.0266L26.5098 14.0409H27.3844V14.0001Z" fill="white"/>
<path d="M15.8496 13.3878C15.8496 13.8776 16.1279 14.0817 16.4857 14.0817C16.764 14.0817 17.0025 14.0001 17.082 13.9593L17.2013 13.2654C17.1615 13.2654 17.082 13.3062 17.0025 13.3062C16.7242 13.3062 16.6845 13.1429 16.7242 13.0613L16.9627 11.6327H17.4L17.5193 10.8572H17.1218L17.2013 10.3674" fill="#DCE5E5"/>
<path d="M17.7637 12.6532C17.7637 13.796 18.1215 14.0817 18.7576 14.0817C19.3539 14.0817 19.5925 13.9593 19.5925 13.9593L19.7515 13.1838C19.7515 13.1838 19.3142 13.3879 18.9166 13.3879C18.042 13.3879 18.201 12.7348 18.201 12.7348H19.831C19.831 12.7348 19.9503 12.2042 19.9503 12.0001C19.9503 11.4695 19.672 10.8164 18.7973 10.8164C17.9625 10.7348 17.7637 11.6328 17.7637 12.6532ZM18.7576 11.4695C19.1949 11.4695 19.2744 12.0001 19.2744 12.0409H18.2408C18.2408 12.0001 18.3203 11.4695 18.7576 11.4695Z" fill="#DCE5E5"/>
<path d="M23.8047 13.9589L23.9637 13.061C23.9637 13.061 23.5661 13.265 23.2878 13.265C22.7312 13.265 22.4927 12.8161 22.4927 12.3263C22.4927 11.3467 22.9698 10.8161 23.5264 10.8161C23.9239 10.8161 24.242 11.061 24.242 11.061L24.3613 10.2038C24.3613 10.2038 23.8842 9.99976 23.4469 9.99976C22.5325 9.99976 22.0156 10.8161 22.0156 12.3671C22.0156 13.3875 22.0951 14.0814 23.0493 14.0814C23.3673 14.0814 23.8047 13.9589 23.8047 13.9589Z" fill="#DCE5E5"/>
<path d="M11.6444 11.6327C11.6444 11.6327 12.0022 11.4695 12.519 11.4695C12.7973 11.4695 13.0358 11.5103 13.0358 11.7552C13.0358 11.9184 12.9961 11.9593 12.9961 11.9593C12.9961 11.9593 12.7575 11.9593 12.6383 11.9593C11.9624 11.9593 11.207 12.245 11.207 13.1837C11.207 13.9184 11.6841 14.0817 11.9624 14.0817C12.519 14.0817 12.7575 13.7144 12.7973 13.7144L12.7575 14.0409H13.4732L13.7912 11.796C13.7912 10.8572 12.9961 10.8164 12.678 10.8164L11.6444 11.6327ZM13.2744 12.5715C13.2744 12.6939 12.7973 13.347 12.3202 13.347C12.0817 13.347 12.0022 13.1429 12.0022 13.0205C12.0022 12.8164 12.1214 12.5307 12.7178 12.5307C12.8371 12.5715 13.2744 12.5715 13.2744 12.5715Z" fill="#DCE5E5"/>
<path d="M13.6699 13.9591C13.6699 13.9591 13.9085 14.0408 14.5843 14.0408C14.7831 14.0408 15.777 14.0816 15.777 12.9796C15.777 11.9591 14.8229 12.1632 14.8229 11.7551C14.8229 11.551 14.9819 11.4694 15.2602 11.4694C15.3795 11.4694 15.8168 11.5102 15.8168 11.5102L15.936 10.7755C15.936 10.7755 15.6578 10.6938 15.1807 10.6938C14.5843 10.6938 14.3855 10.9387 14.3855 11.7551C14.3855 12.6938 14.9819 12.6122 14.9819 12.9796C14.9819 13.2244 14.7036 13.2653 14.5048 13.2653" fill="#DCE5E5"/>
<path d="M30.2456 11.1838C30.2456 11.1838 29.9276 10.7756 29.4902 10.7756C28.7746 10.7756 28.5361 11.6736 28.5361 12.7348C28.5361 13.3878 28.4566 14.0817 29.1324 14.0817C29.6095 14.0817 29.8878 13.7552 29.8878 13.7552L29.8481 14.0409H30.6432L31.2395 10.1226L30.2456 11.1838ZM30.2059 12.245C30.2059 12.694 29.8481 13.2654 29.4107 13.2654C29.1324 13.2654 28.9734 13.0205 28.9734 12.6123C28.9734 11.9593 29.2517 11.5511 29.6095 11.5511C29.8878 11.5511 30.2059 11.7552 30.2059 12.245Z" fill="#DCE5E5"/>
<path d="M8.37842 13.9999L8.8555 11.0611L8.93501 13.9999H9.49161L10.5253 11.0611L10.088 13.9999H10.9228L11.5589 10.0815H10.565L9.45185 12.4897L9.41209 10.0815H8.97477L7.62305 13.9999H8.37842Z" fill="#DCE5E5"/>
<path d="M19.8691 14.0001H20.704C20.9426 12.6531 20.9823 11.5511 21.5389 11.7552C21.6184 11.2246 21.7377 11.0205 21.8172 10.8164C21.8172 10.8164 21.7775 10.8164 21.6582 10.8164C21.3004 10.8164 21.0221 11.3062 21.0221 11.3062L21.1016 10.8572" fill="#DCE5E5"/>
<path d="M24.5584 11.6327C24.5584 11.6327 24.9162 11.4695 25.4331 11.4695C25.7114 11.4695 25.9499 11.5103 25.9499 11.7552C25.9499 11.9184 25.9101 11.9593 25.9101 11.9593C25.9101 11.9593 25.6716 11.9593 25.5523 11.9593C24.8765 11.9593 24.1211 12.245 24.1211 13.1837C24.1211 13.9184 24.5982 14.0817 24.8765 14.0817C25.4331 14.0817 25.6716 13.7144 25.7114 13.7144L25.6716 14.0409H26.3872L26.7053 11.796C26.7053 10.8572 25.9101 10.8164 25.5921 10.8164L24.5584 11.6327ZM26.1884 12.5715C26.1884 12.6939 25.7114 13.347 25.2343 13.347C24.9957 13.347 24.9162 13.1429 24.9162 13.0205C24.9162 12.8164 25.0355 12.5307 25.6318 12.5307C25.7909 12.5715 26.1884 12.5715 26.1884 12.5715Z" fill="#DCE5E5"/>
<path d="M26.543 14.0001H27.3779C27.6164 12.6531 27.6562 11.5511 28.2127 11.7552C28.2923 11.2246 28.4115 11.0205 28.491 10.8164C28.491 10.8164 28.4513 10.8164 28.332 10.8164C27.9742 10.8164 27.6959 11.3062 27.6959 11.3062L27.7754 10.8572" fill="#DCE5E5"/>
</svg>
