<?xml version="1.0" encoding="utf-8"?>
<!-- Generator: Adobe Illustrator 27.1.0, SVG Export Plug-In . SVG Version: 6.00 Build 0)  -->
<svg version="1.1" id="Layer_1" xmlns="http://www.w3.org/2000/svg" xmlns:xlink="http://www.w3.org/1999/xlink" x="0px" y="0px"
	 viewBox="0 0 512 512" style="enable-background:new 0 0 512 512;" xml:space="preserve">
<style type="text/css">
	.st0{fill:#FFFFFF;}
</style>
<path class="st0" d="M492.6,112.7h-47.3h-4.1h-42.8h-4.1h-42.8h-4.1h-42.8h-3.9h-42.8h-4.1H211h-4.1h-42.8h-4.1h-42.8H113H70.3h-4.1
	H19.4c-4.6,0-8.4,3.8-8.4,8.4v20.4c0,18.7,15.2,33.9,33.9,33.9c8.9,0,17.3-3.5,23.5-9.4c6.2,6,14.5,9.4,23.4,9.4
	c8.9,0,17.3-3.5,23.5-9.4c6.2,6,14.5,9.4,23.4,9.4c8.9,0,17.3-3.5,23.5-9.4c6.2,6,14.5,9.4,23.4,9.4c8.9,0,17.3-3.5,23.5-9.4
	c6.2,6,14.5,9.4,23.4,9.4c8.9,0,17.3-3.5,23.5-9.4c6.2,6,14.5,9.4,23.4,9.4c8.9,0,17.3-3.5,23.5-9.4c6.2,6,14.5,9.4,23.4,9.4
	c8.9,0,17.3-3.5,23.5-9.4c6.2,6,14.5,9.4,23.4,9.4c8.9,0,17.3-3.5,23.5-9.4c6.2,6,14.5,9.4,23.4,9.4c8.9,0,17.3-3.5,23.5-9.4
	c6.2,6,14.5,9.4,23.4,9.4c18.7,0,33.9-15.2,33.9-33.9v-20.4C501,116.4,497.2,112.7,492.6,112.7z M58.1,141.3
	c0,7.3-5.9,13.2-13.2,13.2c-7.3,0-13.2-5.9-13.2-13.2v-7.9h26.4V141.3z M104.9,141.3c0,7.3-5.9,13.2-13.2,13.2
	c-7.3,0-13.2-5.9-13.2-13.2v-7.9h26.4V141.3z M151.8,141.3c0,7.3-5.9,13.2-13.2,13.2c-7.3,0-13.2-5.9-13.2-13.2v-7.9h26.4V141.3z
	 M198.6,141.3c0,3.5-1.4,6.8-3.9,9.3c-2.5,2.5-5.8,3.9-9.3,3.9c-7.3,0-13.2-5.9-13.2-13.2v-7.9h26.4V141.3z M245.6,141.3
	c0,7.3-5.9,13.2-13.2,13.2c-7.3,0-13.2-5.9-13.2-13.2v-7.9h26.4V141.3z M292.5,141.3c0,7.3-5.9,13.2-13.2,13.2
	c-7.3,0-13.2-5.9-13.2-13.2v-7.9h26.4V141.3z M339.3,141.3c0,7.3-5.9,13.2-13.2,13.2c-7.3,0-13.2-5.9-13.2-13.2v-7.9h26.4V141.3z
	 M386.2,141.3c0,7.3-5.9,13.2-13.2,13.2c-7.3,0-13.2-5.9-13.2-13.2v-7.9h26.4V141.3z M433.1,141.3c0,7.3-5.9,13.2-13.2,13.2
	c-7.3,0-13.2-5.9-13.2-13.2v-7.9h26.4V141.3z M479.9,141.3c0,7.3-5.9,13.2-13.2,13.2c-7.3,0-13.2-5.9-13.2-13.2v-7.9h26.4V141.3z"/>
<path class="st0" d="M440.3,27.9H71.5c0,0,0,0-0.1,0c-17.1,0.1-31,14-31,31V82c0,4.6,3.8,8.4,8.4,8.4h4.5h405.1h4.4
	c4.6,0,8.4-3.8,8.4-8.4V58.9C471.2,41.8,457.3,27.9,440.3,27.9z M449.9,69.2H61.7V58.9c0-5.4,4.4-9.7,9.7-9.7h368.7
	c5.4,0,9.7,4.4,9.7,9.7V69.2z"/>
<path class="st0" d="M57.8,69.2L57.8,69.2h-6.2c-2.7,0-5.2,1.3-6.8,3.4l-32.2,43.4c-2.5,3.3-2.1,8,0.8,11l3.1,3.1
	c1.6,1.6,3.7,2.5,5.9,2.5c0.2,0,0.4,0,0.6,0c2.4-0.2,4.7-1.4,6.1-3.3l35.2-46.4c1.1-1.4,1.8-3.2,1.8-5.2
	C66.2,73,62.5,69.2,57.8,69.2z"/>
<path class="st0" d="M499,116.1l-32.2-43.4c-1.6-2.1-4.1-3.4-6.8-3.4h-6.2c-3.2,0-6.1,1.8-7.5,4.7c-1.4,2.9-1.1,6.3,0.8,8.8
	l35.3,46.5c1.5,1.9,3.7,3.1,6.1,3.3c0.2,0,0.4,0,0.6,0c2.2,0,4.4-0.9,5.9-2.5l3.1-3.1C501.1,124.1,501.5,119.4,499,116.1z"/>
<path class="st0" d="M462.7,155.7h-4.4c-4.6,0-8.4,3.8-8.4,8.4v288.9c0,5.4-4.4,9.7-9.7,9.7H71.5c-5.4,0-9.7-4.4-9.7-9.7V164.1
	c0-4.6-3.8-8.4-8.4-8.4h-4.4c-4.6,0-8.4,3.8-8.4,8.4v288.9c0,17.1,13.9,31,30.9,31h368.7c17.1,0,30.9-13.9,30.9-31V164.1
	C471.1,159.5,467.3,155.7,462.7,155.7z"/>
<path class="st0" d="M365.1,202L365.1,202c-19.7,0-35.7,16-35.7,35.7v166.5c0,9.5,3.7,18.5,10.4,25.2c6.7,6.7,15.7,10.4,25.2,10.4
	c19.7,0,35.8-16,35.8-35.6V237.7C400.8,218,384.9,202,365.1,202z"/>
<path class="st0" d="M258,287.7L258,287.7c-19.8,0-35.7,16-35.7,35.7v80.1c0,20,16.4,36.8,36.4,36.4c19.4-0.4,35-16.2,35-35.6v-80.9
	C293.6,303.7,277.7,287.7,258,287.7z"/>
<path class="st0" d="M150.6,368.5L150.6,368.5c-19.7,0-35.7,16-35.7,35.7v0.1c0,19.6,16,35.6,35.6,35.6c19.7,0,35.8-16,35.8-35.6
	v-0.1C186.3,384.5,170.3,368.5,150.6,368.5z"/>
</svg>
